# MagicaVoxel @ Ephtracy

# group
g zou_kansei

# material
mtllib zou_kansei.mtl
usemtl palette

# normals
vn -1 0 0
vn 1 0 0
vn 0 0 1
vn 0 0 -1
vn 0 -1 0
vn 0 1 0

# texcoords
vt 0.705078 0.5
vt 0.958984 0.5
vt 0.994141 0.5

# verts
v -4 4 4
v -4 4 -0
v -4 5 5
v -4 5 4
v -4 5 -0
v -4 5 -1
v -4 9 5
v -4 9 4
v -4 9 -0
v -4 9 -1
v -4 10 4
v -4 10 -0
v -3 0 3
v -3 0 1
v -3 0 -0
v -3 0 -2
v -3 1 3
v -3 1 1
v -3 1 -0
v -3 1 -2
v -3 2 4
v -3 2 3
v -3 2 1
v -3 2 -0
v -3 2 -2
v -3 2 -3
v -3 4 4
v -3 4 -0
v -3 4 -3
v -2 4 5
v -2 4 4
v -2 7 5
v -2 7 4
v -1 2 -3
v -1 2 -4
v -1 3 6
v -1 3 5
v -1 3 -3
v -1 3 -4
v -1 4 5
v -1 6 6
v -1 6 5
v 0 3 -3
v 0 3 -4
v 0 4 -3
v 0 5 -3
v 0 5 -4
v 1 0 3
v 1 0 1
v 1 0 -0
v 1 0 -2
v 1 1 3
v 1 1 1
v 1 1 -0
v 1 1 -2
v 1 2 3
v 1 2 1
v 1 2 -0
v 1 2 -2
v 3 5 5
v 3 5 4
v 3 5 -0
v 3 5 -1
v 3 9 5
v 3 9 4
v 3 9 -0
v 3 9 -1
v 3 10 4
v 3 10 -0
v -3 5 5
v -3 5 4
v -3 5 -0
v -3 5 -1
v -3 9 5
v -3 9 4
v -3 9 -0
v -3 9 -1
v -3 10 4
v -3 10 -0
v -1 0 3
v -1 0 1
v -1 0 -0
v -1 0 -2
v -1 1 3
v -1 1 1
v -1 1 -0
v -1 1 -2
v -1 2 3
v -1 2 1
v -1 2 -0
v -1 2 -2
v 0 2 -3
v 0 2 -4
v 0 3 6
v 0 3 5
v 0 3 -3
v 0 3 -4
v 0 4 6
v 0 4 5
v 1 3 -3
v 1 3 -4
v 1 4 6
v 1 4 5
v 1 4 -3
v 1 5 -3
v 1 5 -4
v 1 6 6
v 1 6 5
v 2 4 5
v 2 4 4
v 2 7 5
v 2 7 4
v 3 0 3
v 3 0 1
v 3 0 -0
v 3 0 -2
v 3 1 3
v 3 1 1
v 3 1 -0
v 3 1 -2
v 3 2 4
v 3 2 3
v 3 2 1
v 3 2 -0
v 3 2 -2
v 3 2 -3
v 3 4 4
v 3 4 -0
v 3 4 -3
v 4 4 4
v 4 4 -0
v 4 5 5
v 4 5 4
v 4 5 -0
v 4 5 -1
v 4 9 5
v 4 9 4
v 4 9 -0
v 4 9 -1
v 4 10 4
v 4 10 -0
v -1 3 6
v -1 6 6
v 0 3 6
v 0 4 6
v 1 4 6
v 1 6 6
v -4 5 5
v -4 9 5
v -3 5 5
v -3 9 5
v -2 4 5
v -2 7 5
v -1 4 5
v -1 6 5
v 1 4 5
v 1 6 5
v 2 4 5
v 2 7 5
v 3 5 5
v 3 9 5
v 4 5 5
v 4 9 5
v -4 4 4
v -4 5 4
v -4 9 4
v -4 10 4
v -3 2 4
v -3 4 4
v -3 5 4
v -3 9 4
v -3 10 4
v -2 4 4
v -2 7 4
v -2 8 4
v -1 7 4
v -1 8 4
v 1 7 4
v 1 8 4
v 2 4 4
v 2 7 4
v 2 8 4
v 3 2 4
v 3 4 4
v 3 5 4
v 3 9 4
v 3 10 4
v 4 4 4
v 4 5 4
v 4 9 4
v 4 10 4
v -3 0 3
v -3 1 3
v -3 2 3
v -1 0 3
v -1 1 3
v -1 2 3
v 1 0 3
v 1 1 3
v 1 2 3
v 3 0 3
v 3 1 3
v 3 2 3
v -3 0 -0
v -3 1 -0
v -3 2 -0
v -1 0 -0
v -1 1 -0
v -1 2 -0
v 1 0 -0
v 1 1 -0
v 1 2 -0
v 3 0 -0
v 3 1 -0
v 3 2 -0
v 0 4 -3
v 0 5 -3
v 1 4 -3
v 1 5 -3
v -1 3 5
v -1 4 5
v 0 3 5
v 0 4 5
v -3 0 1
v -3 1 1
v -3 2 1
v -1 0 1
v -1 1 1
v -1 2 1
v 1 0 1
v 1 1 1
v 1 2 1
v 3 0 1
v 3 1 1
v 3 2 1
v -4 4 -0
v -4 5 -0
v -4 9 -0
v -4 10 -0
v -3 4 -0
v -3 5 -0
v -3 9 -0
v -3 10 -0
v 3 4 -0
v 3 5 -0
v 3 9 -0
v 3 10 -0
v 4 4 -0
v 4 5 -0
v 4 9 -0
v 4 10 -0
v -4 5 -1
v -4 9 -1
v -3 5 -1
v -3 9 -1
v 3 5 -1
v 3 9 -1
v 4 5 -1
v 4 9 -1
v -3 0 -2
v -3 1 -2
v -3 2 -2
v -1 0 -2
v -1 1 -2
v -1 2 -2
v 1 0 -2
v 1 1 -2
v 1 2 -2
v 3 0 -2
v 3 1 -2
v 3 2 -2
v -3 2 -3
v -3 4 -3
v -1 2 -3
v -1 3 -3
v 0 2 -3
v 0 3 -3
v 0 4 -3
v 1 3 -3
v 1 4 -3
v 3 2 -3
v 3 4 -3
v -1 2 -4
v -1 3 -4
v 0 2 -4
v 0 3 -4
v 0 5 -4
v 1 3 -4
v 1 5 -4
v -3 0 3
v -1 0 3
v 1 0 3
v 3 0 3
v -3 0 1
v -1 0 1
v 1 0 1
v 3 0 1
v -3 0 -0
v -1 0 -0
v 1 0 -0
v 3 0 -0
v -3 0 -2
v -1 0 -2
v 1 0 -2
v 3 0 -2
v -3 2 4
v 3 2 4
v -3 2 3
v -1 2 3
v 1 2 3
v 3 2 3
v -3 2 1
v -1 2 1
v 1 2 1
v 3 2 1
v -3 2 -0
v -1 2 -0
v 1 2 -0
v 3 2 -0
v -3 2 -2
v -1 2 -2
v 1 2 -2
v 3 2 -2
v -3 2 -3
v -1 2 -3
v 0 2 -3
v 3 2 -3
v -1 2 -4
v 0 2 -4
v -1 3 6
v 0 3 6
v -1 3 5
v 0 3 5
v 0 3 -3
v 1 3 -3
v 0 3 -4
v 1 3 -4
v 0 4 6
v 1 4 6
v -2 4 5
v -1 4 5
v 0 4 5
v 1 4 5
v 2 4 5
v -4 4 4
v -3 4 4
v -2 4 4
v 2 4 4
v 3 4 4
v 4 4 4
v -4 4 -0
v -3 4 -0
v 3 4 -0
v 4 4 -0
v -4 5 5
v -3 5 5
v 3 5 5
v 4 5 5
v -4 5 4
v -3 5 4
v 3 5 4
v 4 5 4
v -4 5 -0
v -3 5 -0
v 3 5 -0
v 4 5 -0
v -4 5 -1
v -3 5 -1
v 3 5 -1
v 4 5 -1
v -1 3 -3
v 0 3 -3
v -1 3 -4
v 0 3 -4
v -3 4 -0
v 3 4 -0
v -3 4 -3
v 0 4 -3
v 1 4 -3
v 3 4 -3
v 0 5 -3
v 1 5 -3
v 0 5 -4
v 1 5 -4
v -1 6 6
v 1 6 6
v -1 6 5
v 1 6 5
v -2 7 5
v 2 7 5
v -2 7 4
v -1 7 4
v 1 7 4
v 2 7 4
v -4 9 5
v -3 9 5
v 3 9 5
v 4 9 5
v -4 9 4
v -3 9 4
v 3 9 4
v 4 9 4
v -4 9 -0
v -3 9 -0
v 3 9 -0
v 4 9 -0
v -4 9 -1
v -3 9 -1
v 3 9 -1
v 4 9 -1
v -4 10 4
v -3 10 4
v 3 10 4
v 4 10 4
v -4 10 -0
v -3 10 -0
v 3 10 -0
v 4 10 -0

# faces
f 4/1/1 2/1/1 1/1/1
f 5/1/1 2/1/1 4/1/1
f 7/1/1 4/1/1 3/1/1
f 7/1/1 6/1/1 5/1/1
f 7/1/1 5/1/1 4/1/1
f 8/1/1 6/1/1 7/1/1
f 9/1/1 6/1/1 8/1/1
f 10/1/1 6/1/1 9/1/1
f 11/1/1 9/1/1 8/1/1
f 12/1/1 9/1/1 11/1/1
f 17/2/1 14/2/1 13/2/1
f 18/2/1 14/2/1 17/2/1
f 19/2/1 16/2/1 15/2/1
f 20/2/1 16/2/1 19/2/1
f 22/1/1 18/1/1 17/1/1
f 23/1/1 18/1/1 22/1/1
f 24/1/1 20/1/1 19/1/1
f 25/1/1 20/1/1 24/1/1
f 27/1/1 25/1/1 24/1/1
f 27/1/1 26/1/1 25/1/1
f 27/1/1 24/1/1 23/1/1
f 27/1/1 23/1/1 22/1/1
f 27/1/1 22/1/1 21/1/1
f 28/1/1 26/1/1 27/1/1
f 29/1/1 26/1/1 28/1/1
f 32/1/1 31/1/1 30/1/1
f 33/1/1 31/1/1 32/1/1
f 38/1/1 35/1/1 34/1/1
f 39/1/1 35/1/1 38/1/1
f 40/1/1 37/1/1 36/1/1
f 41/1/1 40/1/1 36/1/1
f 42/1/1 40/1/1 41/1/1
f 45/1/1 44/1/1 43/1/1
f 46/1/1 44/1/1 45/1/1
f 47/1/1 44/1/1 46/1/1
f 52/2/1 49/2/1 48/2/1
f 53/2/1 49/2/1 52/2/1
f 54/2/1 51/2/1 50/2/1
f 55/2/1 51/2/1 54/2/1
f 56/1/1 53/1/1 52/1/1
f 57/1/1 53/1/1 56/1/1
f 58/1/1 55/1/1 54/1/1
f 59/1/1 55/1/1 58/1/1
f 64/1/1 61/1/1 60/1/1
f 65/1/1 61/1/1 64/1/1
f 66/1/1 63/1/1 62/1/1
f 67/1/1 63/1/1 66/1/1
f 68/1/1 66/1/1 65/1/1
f 69/1/1 66/1/1 68/1/1
f 70/1/2 71/1/2 74/1/2
f 74/1/2 71/1/2 75/1/2
f 72/1/2 73/1/2 76/1/2
f 76/1/2 73/1/2 77/1/2
f 75/1/2 76/1/2 78/1/2
f 78/1/2 76/1/2 79/1/2
f 80/2/2 81/2/2 84/2/2
f 84/2/2 81/2/2 85/2/2
f 82/2/2 83/2/2 86/2/2
f 86/2/2 83/2/2 87/2/2
f 84/1/2 85/1/2 88/1/2
f 88/1/2 85/1/2 89/1/2
f 86/1/2 87/1/2 90/1/2
f 90/1/2 87/1/2 91/1/2
f 92/1/2 93/1/2 96/1/2
f 96/1/2 93/1/2 97/1/2
f 94/1/2 95/1/2 98/1/2
f 98/1/2 95/1/2 99/1/2
f 100/1/2 101/1/2 104/1/2
f 104/1/2 101/1/2 105/1/2
f 105/1/2 101/1/2 106/1/2
f 102/1/2 103/1/2 107/1/2
f 107/1/2 103/1/2 108/1/2
f 109/1/2 110/1/2 111/1/2
f 111/1/2 110/1/2 112/1/2
f 113/2/2 114/2/2 117/2/2
f 117/2/2 114/2/2 118/2/2
f 115/2/2 116/2/2 119/2/2
f 119/2/2 116/2/2 120/2/2
f 117/1/2 118/1/2 122/1/2
f 122/1/2 118/1/2 123/1/2
f 119/1/2 120/1/2 124/1/2
f 124/1/2 120/1/2 125/1/2
f 124/1/2 125/1/2 127/1/2
f 125/1/2 126/1/2 127/1/2
f 123/1/2 124/1/2 127/1/2
f 122/1/2 123/1/2 127/1/2
f 121/1/2 122/1/2 127/1/2
f 127/1/2 126/1/2 128/1/2
f 128/1/2 126/1/2 129/1/2
f 130/1/2 131/1/2 133/1/2
f 133/1/2 131/1/2 134/1/2
f 132/1/2 133/1/2 136/1/2
f 134/1/2 135/1/2 136/1/2
f 133/1/2 134/1/2 136/1/2
f 136/1/2 135/1/2 137/1/2
f 137/1/2 135/1/2 138/1/2
f 138/1/2 135/1/2 139/1/2
f 137/1/2 138/1/2 140/1/2
f 140/1/2 138/1/2 141/1/2
f 144/1/3 143/1/3 142/1/3
f 145/1/3 143/1/3 144/1/3
f 146/1/3 143/1/3 145/1/3
f 147/1/3 143/1/3 146/1/3
f 150/1/3 149/1/3 148/1/3
f 151/1/3 149/1/3 150/1/3
f 154/1/3 153/1/3 152/1/3
f 155/1/3 153/1/3 154/1/3
f 157/1/3 153/1/3 155/1/3
f 158/1/3 157/1/3 156/1/3
f 159/1/3 153/1/3 157/1/3
f 159/1/3 157/1/3 158/1/3
f 162/1/3 161/1/3 160/1/3
f 163/1/3 161/1/3 162/1/3
f 169/1/3 165/1/3 164/1/3
f 170/1/3 165/1/3 169/1/3
f 171/1/3 167/1/3 166/1/3
f 172/1/3 167/1/3 171/1/3
f 173/1/3 170/1/3 169/1/3
f 173/1/3 169/1/3 168/1/3
f 173/1/3 171/1/3 170/1/3
f 174/1/3 171/1/3 173/1/3
f 175/1/3 171/1/3 174/1/3
f 176/3/3 175/3/3 174/3/3
f 177/1/3 171/1/3 175/1/3
f 177/3/3 175/3/3 176/3/3
f 178/1/3 177/1/3 176/1/3
f 179/1/3 171/1/3 177/1/3
f 179/1/3 177/1/3 178/1/3
f 180/1/3 173/1/3 168/1/3
f 181/3/3 179/3/3 178/3/3
f 182/1/3 171/1/3 179/1/3
f 182/3/3 179/3/3 181/3/3
f 183/1/3 181/1/3 180/1/3
f 183/1/3 180/1/3 168/1/3
f 183/1/3 182/1/3 181/1/3
f 184/1/3 182/1/3 183/1/3
f 185/1/3 182/1/3 184/1/3
f 186/1/3 171/1/3 182/1/3
f 186/1/3 182/1/3 185/1/3
f 188/1/3 185/1/3 184/1/3
f 189/1/3 185/1/3 188/1/3
f 190/1/3 187/1/3 186/1/3
f 191/1/3 187/1/3 190/1/3
f 195/2/3 193/2/3 192/2/3
f 196/1/3 194/1/3 193/1/3
f 196/2/3 193/2/3 195/2/3
f 197/1/3 194/1/3 196/1/3
f 201/2/3 199/2/3 198/2/3
f 202/1/3 200/1/3 199/1/3
f 202/2/3 199/2/3 201/2/3
f 203/1/3 200/1/3 202/1/3
f 207/2/3 205/2/3 204/2/3
f 208/1/3 206/1/3 205/1/3
f 208/2/3 205/2/3 207/2/3
f 209/1/3 206/1/3 208/1/3
f 213/2/3 211/2/3 210/2/3
f 214/1/3 212/1/3 211/1/3
f 214/2/3 211/2/3 213/2/3
f 215/1/3 212/1/3 214/1/3
f 218/1/3 217/1/3 216/1/3
f 219/1/3 217/1/3 218/1/3
f 220/1/4 221/1/4 222/1/4
f 222/1/4 221/1/4 223/1/4
f 224/2/4 225/2/4 227/2/4
f 225/1/4 226/1/4 228/1/4
f 227/2/4 225/2/4 228/2/4
f 228/1/4 226/1/4 229/1/4
f 230/2/4 231/2/4 233/2/4
f 231/1/4 232/1/4 234/1/4
f 233/2/4 231/2/4 234/2/4
f 234/1/4 232/1/4 235/1/4
f 236/1/4 237/1/4 240/1/4
f 240/1/4 237/1/4 241/1/4
f 238/1/4 239/1/4 242/1/4
f 242/1/4 239/1/4 243/1/4
f 240/1/4 241/1/4 244/1/4
f 241/1/4 242/1/4 244/1/4
f 244/1/4 242/1/4 245/1/4
f 245/1/4 242/1/4 246/1/4
f 244/1/4 245/1/4 248/1/4
f 248/1/4 245/1/4 249/1/4
f 246/1/4 247/1/4 250/1/4
f 250/1/4 247/1/4 251/1/4
f 252/1/4 253/1/4 254/1/4
f 254/1/4 253/1/4 255/1/4
f 256/1/4 257/1/4 258/1/4
f 258/1/4 257/1/4 259/1/4
f 260/2/4 261/2/4 263/2/4
f 261/1/4 262/1/4 264/1/4
f 263/2/4 261/2/4 264/2/4
f 264/1/4 262/1/4 265/1/4
f 266/2/4 267/2/4 269/2/4
f 267/1/4 268/1/4 270/1/4
f 269/2/4 267/2/4 270/2/4
f 270/1/4 268/1/4 271/1/4
f 272/1/4 273/1/4 274/1/4
f 274/1/4 273/1/4 275/1/4
f 275/1/4 273/1/4 277/1/4
f 277/1/4 273/1/4 278/1/4
f 276/1/4 277/1/4 279/1/4
f 276/1/4 279/1/4 281/1/4
f 279/1/4 280/1/4 281/1/4
f 281/1/4 280/1/4 282/1/4
f 283/1/4 284/1/4 285/1/4
f 285/1/4 284/1/4 286/1/4
f 286/1/4 287/1/4 288/1/4
f 288/1/4 287/1/4 289/1/4
f 294/2/5 291/2/5 290/2/5
f 295/2/5 291/2/5 294/2/5
f 296/2/5 293/2/5 292/2/5
f 297/2/5 293/2/5 296/2/5
f 302/2/5 299/2/5 298/2/5
f 303/2/5 299/2/5 302/2/5
f 304/2/5 301/2/5 300/2/5
f 305/2/5 301/2/5 304/2/5
f 308/1/5 307/1/5 306/1/5
f 309/1/5 307/1/5 308/1/5
f 310/1/5 307/1/5 309/1/5
f 311/1/5 307/1/5 310/1/5
f 313/1/5 310/1/5 309/1/5
f 314/1/5 310/1/5 313/1/5
f 316/1/5 313/1/5 312/1/5
f 316/1/5 315/1/5 314/1/5
f 316/1/5 314/1/5 313/1/5
f 317/1/5 315/1/5 316/1/5
f 318/1/5 315/1/5 317/1/5
f 319/1/5 315/1/5 318/1/5
f 321/1/5 318/1/5 317/1/5
f 322/1/5 318/1/5 321/1/5
f 324/1/5 321/1/5 320/1/5
f 324/1/5 323/1/5 322/1/5
f 324/1/5 322/1/5 321/1/5
f 325/1/5 323/1/5 324/1/5
f 326/1/5 323/1/5 325/1/5
f 327/1/5 323/1/5 326/1/5
f 328/1/5 326/1/5 325/1/5
f 329/1/5 326/1/5 328/1/5
f 332/1/5 331/1/5 330/1/5
f 333/1/5 331/1/5 332/1/5
f 336/1/5 335/1/5 334/1/5
f 337/1/5 335/1/5 336/1/5
f 342/1/5 339/1/5 338/1/5
f 343/1/5 339/1/5 342/1/5
f 347/1/5 341/1/5 340/1/5
f 347/1/5 342/1/5 341/1/5
f 347/1/5 344/1/5 343/1/5
f 347/1/5 343/1/5 342/1/5
f 348/1/5 344/1/5 347/1/5
f 351/1/5 346/1/5 345/1/5
f 352/1/5 346/1/5 351/1/5
f 353/1/5 350/1/5 349/1/5
f 354/1/5 350/1/5 353/1/5
f 359/1/5 356/1/5 355/1/5
f 360/1/5 356/1/5 359/1/5
f 361/1/5 358/1/5 357/1/5
f 362/1/5 358/1/5 361/1/5
f 367/1/5 364/1/5 363/1/5
f 368/1/5 364/1/5 367/1/5
f 369/1/5 366/1/5 365/1/5
f 370/1/5 366/1/5 369/1/5
f 371/1/6 372/1/6 373/1/6
f 373/1/6 372/1/6 374/1/6
f 375/1/6 376/1/6 377/1/6
f 377/1/6 376/1/6 378/1/6
f 378/1/6 376/1/6 379/1/6
f 379/1/6 376/1/6 380/1/6
f 381/1/6 382/1/6 383/1/6
f 383/1/6 382/1/6 384/1/6
f 385/1/6 386/1/6 387/1/6
f 387/1/6 386/1/6 388/1/6
f 389/1/6 390/1/6 391/1/6
f 391/1/6 390/1/6 392/1/6
f 392/1/6 390/1/6 393/1/6
f 393/1/6 390/1/6 394/1/6
f 395/1/6 396/1/6 399/1/6
f 399/1/6 396/1/6 400/1/6
f 397/1/6 398/1/6 401/1/6
f 401/1/6 398/1/6 402/1/6
f 400/1/6 401/1/6 404/1/6
f 404/1/6 401/1/6 405/1/6
f 403/1/6 404/1/6 407/1/6
f 407/1/6 404/1/6 408/1/6
f 405/1/6 406/1/6 409/1/6
f 409/1/6 406/1/6 410/1/6
f 411/1/6 412/1/6 415/1/6
f 415/1/6 412/1/6 416/1/6
f 413/1/6 414/1/6 417/1/6
f 417/1/6 414/1/6 418/1/6
